/* XPM */
static char * sharp_xpm[] = {
"137 27 16 1",
" 	c None",
".	c #CD0104",
"+	c #F8D6D3",
"@	c #ECA6A6",
"#	c #DF6567",
"$	c #DB5455",
"%	c #E99393",
"&	c #D22A2A",
"*	c #FBE6E2",
"=	c #F6C5C3",
"-	c #D5383C",
";	c #E47D7E",
">	c #C00503",
",	c #D0191C",
"'	c #F1B6B4",
")	c #D84749",
"                                                                                                                                         ",
"                                                                                                                                         ",
"                                                                                                                                         ",
"        ++==='@@'==+*        *                 **  **            *   **               *+=='@@@@@@@==+           *+=''@@@@@@@'=+          ",
"    *';#)-&,&,,,,&&-);%'+   '######'          @#####;+          %######;+          @;#$-&&,.,,,,,,,--#%'     ';#)-&&,,,,,,,,,&-$%'+      ",
"   =#,....>......>>...,,-#% %>.>.>.;          $..>.>,'         @,......,;          &>..>.....>..>..>...&#@  +)....>>>>>.....>>..>&)@*    ",
"  '&...>...>>>>..........>$ ;>...>>;          $.....,@        *-...>....&=         ,......>>>...>........&; *-..>>..>>>>..>>>......,#+   ",
" =-...>...,-&,>>>.>>>..>..% %>.....;          $>....,@        ;,.........#         ,.....&#%%@@@%#&>..>>...%*)>....,-;%%%%%#,>..>>...;   ",
" #.......)+++='@@%;-..>>.&+ ;.....>;          $.....&'       =&....>....>,@        ,.....$*       +;,...>..)=$....>-=      *';,.>...>&=  ",
"*$>...>..&@        ++'#,.;  %..>...;          $.....,'       #.>..>.......-+       ,>>..>$          )...>..-'$>...>)+         #>...>.&'  ",
"*).>......,,-;@+       *@*  ;..>>..%          #.....&'      %,>...+,.>...>.;       ,....>#          )....>.-'$..>.>)*         %>....>&'  ",
" ;........>....,,,&$;+      %...>..&$$$$$$$$$#,...>.,'     *-..>.% ;>.>.>>.-=      ,.....$         +&>>....$+)>>.>.$*        *-......)+  ",
" =-...>............>.>,#+   %.......................,'     ;..>.&  *-.......#*     ,.....# ++    +;,......,@ )>>.>..&#+    =;,.>..>.>;   ",
"  =->....................#* ;>......>......>.>.>....,@    ',>...=   '>.>....>@     ,.....#',>.,.....>....,% +)........>>&&>>.......>;    ",
"    %-,.........>..>..>>.>)*%>...............>.>....&'   *$....&%@%@%&.>...>.)+    ,....>-$>>...>>.....,)+  +)>....................;     ",
"      =;)&&,,..............@;>.....,,&,&,&&,&&......,'   %,>>>.>.>.>>........>;    ,.>..>#%,.......>..#+    +)>..>>....>>....>>.&)=      ",
"  +;%+    ==%;$)&,........>&;......#+========+).....&'  =&..>............>....&+   ,.....# '&.....>>.&=     +)..>.>,)---,,,,--)#=        ",
"  %.>-%'+       +@#,.......&;......;          $.....,@  ;.>.>......>.....>....>#   ,.....#  =-.>>......@    +)>...>$++=+@@%@++    =@+    ",
" +-...>,);%'+*     $>..>..>);>.....;          #.....,' @,...,&&&&&&&&&-,,>...>.>'  ,.....$   +$..>..>..>%   +)>....)*           *;---%   ",
" ;,....>>>.,-)###$$&...>>..@%......;          $....>&' $>...;===========#...>...)  ,.....#    *#...>.>...;  +-.....)+           '-&#,-=  ",
"+)..........>>>>..>>.....>$ %..>...;          $.....,'',>..)*           +&..>..>.% ,..>.>$     *;........>#**)>>..>)+           '$$--$'  ",
" @#-,>.............>...>&;* ;..>..>;          $>..>.,;-...,@             ;.>>..>>,*>.>>.>$       ;,>..>....)%->...>-+           '--#&$=  ",
"  *+'%$)-,,>>......,&-);'   '####$#'          %#####;;-))-;              *#))))))-=$)))));        %$))))$))-;)&&&&&#*           *;-#)%   ",
"      **=@@;;;#;;%@@'+       *  *                    ****+                 +****** *+*****         *********++=====+              =@=    ",
"                                                                                                                                         ",
"                                                                                                                                         ",
"                                                                                                                                         "};
